<mxfile host="Electron" agent="Mozilla/5.0 (Windows NT 10.0; Win64; x64) AppleWebKit/537.36 (KHTML, like Gecko) draw.io/28.1.2 Chrome/138.0.7204.243 Electron/37.4.0 Safari/537.36" version="28.1.2">
  <diagram name="Page-1" id="iK1-qDXn2X_y3gH87pjy">
    <mxGraphModel dx="4191" dy="1249" grid="1" gridSize="10" guides="1" tooltips="1" connect="1" arrows="1" fold="1" page="1" pageScale="2.5" pageWidth="850" pageHeight="1100" math="0" shadow="0">
      <root>
        <mxCell id="0" />
        <mxCell id="1" parent="0" />
        <mxCell id="SaeY1YJnAmAmEXPjq-Cy-1" value="&lt;b&gt;&lt;font style=&quot;font-size: 25px;&quot;&gt;Integration Model&lt;/font&gt;&lt;/b&gt; (&lt;b&gt;&lt;font style=&quot;font-size: 14px;&quot;&gt;how two tables are related&lt;/font&gt;&lt;/b&gt;)" style="text;html=1;align=center;verticalAlign=middle;resizable=0;points=[];autosize=1;strokeColor=none;fillColor=none;" parent="1" vertex="1">
          <mxGeometry x="-2030" y="40" width="420" height="40" as="geometry" />
        </mxCell>
        <mxCell id="SaeY1YJnAmAmEXPjq-Cy-2" value="crm_cust_info" style="swimlane;fontStyle=0;childLayout=stackLayout;horizontal=1;startSize=30;horizontalStack=0;resizeParent=1;resizeParentMax=0;resizeLast=0;collapsible=1;marginBottom=0;whiteSpace=wrap;html=1;fillColor=#dae8fc;strokeColor=#6c8ebf;rounded=1;fontSize=20;" parent="1" vertex="1">
          <mxGeometry x="-1470" y="520" width="290" height="130" as="geometry" />
        </mxCell>
        <mxCell id="SaeY1YJnAmAmEXPjq-Cy-23" value="cst_id" style="text;strokeColor=none;fillColor=none;align=left;verticalAlign=middle;spacingLeft=4;spacingRight=4;overflow=hidden;points=[[0,0.5],[1,0.5]];portConstraint=eastwest;rotatable=0;whiteSpace=wrap;html=1;fontSize=20;" parent="SaeY1YJnAmAmEXPjq-Cy-2" vertex="1">
          <mxGeometry y="30" width="290" height="50" as="geometry" />
        </mxCell>
        <mxCell id="SaeY1YJnAmAmEXPjq-Cy-3" value="cst_key" style="text;strokeColor=none;fillColor=none;align=left;verticalAlign=middle;spacingLeft=4;spacingRight=4;overflow=hidden;points=[[0,0.5],[1,0.5]];portConstraint=eastwest;rotatable=0;whiteSpace=wrap;html=1;fontSize=20;" parent="SaeY1YJnAmAmEXPjq-Cy-2" vertex="1">
          <mxGeometry y="80" width="290" height="50" as="geometry" />
        </mxCell>
        <mxCell id="SaeY1YJnAmAmEXPjq-Cy-6" value="&lt;font style=&quot;font-size: 18px;&quot;&gt;Customer Information&lt;/font&gt;" style="text;strokeColor=none;fillColor=none;html=1;fontSize=16;fontStyle=0;verticalAlign=middle;align=center;" parent="1" vertex="1">
          <mxGeometry x="-1380" y="480" width="100" height="40" as="geometry" />
        </mxCell>
        <mxCell id="SaeY1YJnAmAmEXPjq-Cy-10" value="crm_prd_info" style="swimlane;fontStyle=0;childLayout=stackLayout;horizontal=1;startSize=30;horizontalStack=0;resizeParent=1;resizeParentMax=0;resizeLast=0;collapsible=1;marginBottom=0;whiteSpace=wrap;html=1;fillColor=#dae8fc;strokeColor=#6c8ebf;rounded=1;fontSize=20;" parent="1" vertex="1">
          <mxGeometry x="-1470" y="370" width="290" height="80" as="geometry" />
        </mxCell>
        <mxCell id="SaeY1YJnAmAmEXPjq-Cy-11" value="prd_key" style="text;strokeColor=none;fillColor=none;align=left;verticalAlign=middle;spacingLeft=4;spacingRight=4;overflow=hidden;points=[[0,0.5],[1,0.5]];portConstraint=eastwest;rotatable=0;whiteSpace=wrap;html=1;fontSize=20;" parent="SaeY1YJnAmAmEXPjq-Cy-10" vertex="1">
          <mxGeometry y="30" width="290" height="50" as="geometry" />
        </mxCell>
        <mxCell id="SaeY1YJnAmAmEXPjq-Cy-12" value="&lt;font style=&quot;font-size: 18px;&quot;&gt;Current &amp;amp; History Product Information&lt;/font&gt;" style="text;strokeColor=none;fillColor=none;html=1;fontSize=16;fontStyle=0;verticalAlign=middle;align=center;" parent="1" vertex="1">
          <mxGeometry x="-1375" y="330" width="100" height="40" as="geometry" />
        </mxCell>
        <mxCell id="SaeY1YJnAmAmEXPjq-Cy-13" value="crm_sales_details" style="swimlane;fontStyle=0;childLayout=stackLayout;horizontal=1;startSize=30;horizontalStack=0;resizeParent=1;resizeParentMax=0;resizeLast=0;collapsible=1;marginBottom=0;whiteSpace=wrap;html=1;fillColor=#dae8fc;strokeColor=#6c8ebf;rounded=1;fontSize=20;" parent="1" vertex="1">
          <mxGeometry x="-1910" y="420" width="290" height="130" as="geometry" />
        </mxCell>
        <mxCell id="SaeY1YJnAmAmEXPjq-Cy-14" value="prd_key" style="text;strokeColor=none;fillColor=none;align=left;verticalAlign=middle;spacingLeft=4;spacingRight=4;overflow=hidden;points=[[0,0.5],[1,0.5]];portConstraint=eastwest;rotatable=0;whiteSpace=wrap;html=1;fontSize=20;" parent="SaeY1YJnAmAmEXPjq-Cy-13" vertex="1">
          <mxGeometry y="30" width="290" height="50" as="geometry" />
        </mxCell>
        <mxCell id="SaeY1YJnAmAmEXPjq-Cy-16" value="cst_id" style="text;strokeColor=none;fillColor=none;align=left;verticalAlign=middle;spacingLeft=4;spacingRight=4;overflow=hidden;points=[[0,0.5],[1,0.5]];portConstraint=eastwest;rotatable=0;whiteSpace=wrap;html=1;fontSize=20;" parent="SaeY1YJnAmAmEXPjq-Cy-13" vertex="1">
          <mxGeometry y="80" width="290" height="50" as="geometry" />
        </mxCell>
        <mxCell id="SaeY1YJnAmAmEXPjq-Cy-15" value="&lt;font style=&quot;font-size: 18px;&quot;&gt;Transactional Records about&amp;nbsp;&lt;/font&gt;&lt;div&gt;&lt;font style=&quot;font-size: 18px;&quot;&gt;Sales &amp;amp; Orders&lt;/font&gt;&lt;/div&gt;" style="text;strokeColor=none;fillColor=none;html=1;fontSize=16;fontStyle=0;verticalAlign=middle;align=center;" parent="1" vertex="1">
          <mxGeometry x="-1815" y="380" width="100" height="40" as="geometry" />
        </mxCell>
        <mxCell id="SaeY1YJnAmAmEXPjq-Cy-19" style="edgeStyle=orthogonalEdgeStyle;rounded=0;orthogonalLoop=1;jettySize=auto;html=1;entryX=0;entryY=0.5;entryDx=0;entryDy=0;" parent="1" source="SaeY1YJnAmAmEXPjq-Cy-14" target="SaeY1YJnAmAmEXPjq-Cy-11" edge="1">
          <mxGeometry relative="1" as="geometry" />
        </mxCell>
        <mxCell id="SaeY1YJnAmAmEXPjq-Cy-20" value="erp_cust_az12" style="swimlane;fontStyle=0;childLayout=stackLayout;horizontal=1;startSize=30;horizontalStack=0;resizeParent=1;resizeParentMax=0;resizeLast=0;collapsible=1;marginBottom=0;whiteSpace=wrap;html=1;fillColor=#fff2cc;strokeColor=#d6b656;rounded=1;fontSize=20;" parent="1" vertex="1">
          <mxGeometry x="-980" y="570" width="290" height="80" as="geometry" />
        </mxCell>
        <mxCell id="SaeY1YJnAmAmEXPjq-Cy-21" value="cid" style="text;strokeColor=none;fillColor=none;align=left;verticalAlign=middle;spacingLeft=4;spacingRight=4;overflow=hidden;points=[[0,0.5],[1,0.5]];portConstraint=eastwest;rotatable=0;whiteSpace=wrap;html=1;fontSize=20;" parent="SaeY1YJnAmAmEXPjq-Cy-20" vertex="1">
          <mxGeometry y="30" width="290" height="50" as="geometry" />
        </mxCell>
        <mxCell id="SaeY1YJnAmAmEXPjq-Cy-22" value="&lt;font style=&quot;font-size: 18px;&quot;&gt;Extra Customer Information (Birthdate)&lt;/font&gt;" style="text;strokeColor=none;fillColor=none;html=1;fontSize=16;fontStyle=0;verticalAlign=middle;align=center;" parent="1" vertex="1">
          <mxGeometry x="-890" y="530" width="100" height="40" as="geometry" />
        </mxCell>
        <mxCell id="SaeY1YJnAmAmEXPjq-Cy-24" style="edgeStyle=orthogonalEdgeStyle;rounded=0;orthogonalLoop=1;jettySize=auto;html=1;entryX=1;entryY=0.5;entryDx=0;entryDy=0;" parent="1" source="SaeY1YJnAmAmEXPjq-Cy-21" target="SaeY1YJnAmAmEXPjq-Cy-3" edge="1">
          <mxGeometry relative="1" as="geometry" />
        </mxCell>
        <mxCell id="SaeY1YJnAmAmEXPjq-Cy-26" value="erp_loc_a101" style="swimlane;fontStyle=0;childLayout=stackLayout;horizontal=1;startSize=30;horizontalStack=0;resizeParent=1;resizeParentMax=0;resizeLast=0;collapsible=1;marginBottom=0;whiteSpace=wrap;html=1;fillColor=#fff2cc;strokeColor=#d6b656;rounded=1;fontSize=20;" parent="1" vertex="1">
          <mxGeometry x="-980" y="730" width="290" height="80" as="geometry" />
        </mxCell>
        <mxCell id="SaeY1YJnAmAmEXPjq-Cy-27" value="cid" style="text;strokeColor=none;fillColor=none;align=left;verticalAlign=middle;spacingLeft=4;spacingRight=4;overflow=hidden;points=[[0,0.5],[1,0.5]];portConstraint=eastwest;rotatable=0;whiteSpace=wrap;html=1;fontSize=20;" parent="SaeY1YJnAmAmEXPjq-Cy-26" vertex="1">
          <mxGeometry y="30" width="290" height="50" as="geometry" />
        </mxCell>
        <mxCell id="SaeY1YJnAmAmEXPjq-Cy-28" value="&lt;font style=&quot;font-size: 18px;&quot;&gt;Location of Customers (Country)&lt;/font&gt;" style="text;strokeColor=none;fillColor=none;html=1;fontSize=16;fontStyle=0;verticalAlign=middle;align=center;" parent="1" vertex="1">
          <mxGeometry x="-890" y="690" width="100" height="40" as="geometry" />
        </mxCell>
        <mxCell id="SaeY1YJnAmAmEXPjq-Cy-30" style="edgeStyle=orthogonalEdgeStyle;rounded=0;orthogonalLoop=1;jettySize=auto;html=1;entryX=1.003;entryY=0.84;entryDx=0;entryDy=0;entryPerimeter=0;" parent="1" source="SaeY1YJnAmAmEXPjq-Cy-27" target="SaeY1YJnAmAmEXPjq-Cy-3" edge="1">
          <mxGeometry relative="1" as="geometry" />
        </mxCell>
        <mxCell id="SaeY1YJnAmAmEXPjq-Cy-31" value="erp_px_cat_gv12" style="swimlane;fontStyle=0;childLayout=stackLayout;horizontal=1;startSize=30;horizontalStack=0;resizeParent=1;resizeParentMax=0;resizeLast=0;collapsible=1;marginBottom=0;whiteSpace=wrap;html=1;fillColor=#fff2cc;strokeColor=#d6b656;rounded=1;fontSize=20;" parent="1" vertex="1">
          <mxGeometry x="-985" y="360" width="290" height="80" as="geometry" />
        </mxCell>
        <mxCell id="SaeY1YJnAmAmEXPjq-Cy-32" value="id" style="text;strokeColor=none;fillColor=none;align=left;verticalAlign=middle;spacingLeft=4;spacingRight=4;overflow=hidden;points=[[0,0.5],[1,0.5]];portConstraint=eastwest;rotatable=0;whiteSpace=wrap;html=1;fontSize=20;" parent="SaeY1YJnAmAmEXPjq-Cy-31" vertex="1">
          <mxGeometry y="30" width="290" height="50" as="geometry" />
        </mxCell>
        <mxCell id="SaeY1YJnAmAmEXPjq-Cy-33" value="&lt;font style=&quot;font-size: 18px;&quot;&gt;Product Categories&lt;/font&gt;" style="text;strokeColor=none;fillColor=none;html=1;fontSize=16;fontStyle=0;verticalAlign=middle;align=center;" parent="1" vertex="1">
          <mxGeometry x="-890" y="320" width="95" height="40" as="geometry" />
        </mxCell>
        <mxCell id="SaeY1YJnAmAmEXPjq-Cy-34" style="edgeStyle=orthogonalEdgeStyle;rounded=0;orthogonalLoop=1;jettySize=auto;html=1;" parent="1" source="SaeY1YJnAmAmEXPjq-Cy-32" target="SaeY1YJnAmAmEXPjq-Cy-11" edge="1">
          <mxGeometry relative="1" as="geometry" />
        </mxCell>
        <mxCell id="SaeY1YJnAmAmEXPjq-Cy-36" value="" style="rounded=1;whiteSpace=wrap;html=1;fillColor=none;dashed=1;" parent="1" vertex="1">
          <mxGeometry x="-1960" y="250" width="810" height="610" as="geometry" />
        </mxCell>
        <mxCell id="SaeY1YJnAmAmEXPjq-Cy-39" value="&lt;b&gt;&lt;font style=&quot;font-size: 30px;&quot;&gt;CRM&lt;/font&gt;&lt;/b&gt;" style="text;html=1;align=center;verticalAlign=middle;whiteSpace=wrap;rounded=1;fillColor=#dae8fc;strokeColor=#6c8ebf;" parent="1" vertex="1">
          <mxGeometry x="-1660" y="230" width="210" height="40" as="geometry" />
        </mxCell>
        <mxCell id="SaeY1YJnAmAmEXPjq-Cy-40" value="" style="rounded=1;whiteSpace=wrap;html=1;fillColor=none;dashed=1;" parent="1" vertex="1">
          <mxGeometry x="-1110" y="250" width="520" height="610" as="geometry" />
        </mxCell>
        <mxCell id="SaeY1YJnAmAmEXPjq-Cy-41" value="&lt;b&gt;&lt;font style=&quot;font-size: 30px;&quot;&gt;ERP&lt;/font&gt;&lt;/b&gt;" style="text;html=1;align=center;verticalAlign=middle;whiteSpace=wrap;rounded=1;fillColor=#fff2cc;strokeColor=#d6b656;" parent="1" vertex="1">
          <mxGeometry x="-955" y="230" width="210" height="40" as="geometry" />
        </mxCell>
        <mxCell id="U5oiVVpsF7VziuaGztr8-1" value="&lt;font style=&quot;font-size: 20px;&quot;&gt;&lt;b&gt;PRODUCT&lt;/b&gt;&lt;/font&gt;" style="text;html=1;strokeColor=#b85450;fillColor=#f8cecc;align=center;verticalAlign=middle;whiteSpace=wrap;overflow=hidden;" vertex="1" parent="1">
          <mxGeometry x="-1470" y="450" width="290" height="30" as="geometry" />
        </mxCell>
        <mxCell id="U5oiVVpsF7VziuaGztr8-2" value="&lt;font style=&quot;font-size: 20px;&quot;&gt;&lt;b&gt;PRODUCT&lt;/b&gt;&lt;/font&gt;" style="text;html=1;strokeColor=#b85450;fillColor=#f8cecc;align=center;verticalAlign=middle;whiteSpace=wrap;overflow=hidden;" vertex="1" parent="1">
          <mxGeometry x="-985" y="440" width="290" height="30" as="geometry" />
        </mxCell>
        <mxCell id="U5oiVVpsF7VziuaGztr8-3" value="&lt;font style=&quot;font-size: 20px;&quot;&gt;&lt;b&gt;CUSTOMER&lt;/b&gt;&lt;/font&gt;" style="text;html=1;strokeColor=#82b366;fillColor=#d5e8d4;align=center;verticalAlign=middle;whiteSpace=wrap;overflow=hidden;" vertex="1" parent="1">
          <mxGeometry x="-1470" y="650" width="290" height="30" as="geometry" />
        </mxCell>
        <mxCell id="U5oiVVpsF7VziuaGztr8-4" value="&lt;font style=&quot;font-size: 20px;&quot;&gt;&lt;b&gt;CUSTOMER&lt;/b&gt;&lt;/font&gt;" style="text;html=1;strokeColor=#82b366;fillColor=#d5e8d4;align=center;verticalAlign=middle;whiteSpace=wrap;overflow=hidden;" vertex="1" parent="1">
          <mxGeometry x="-980" y="650" width="290" height="30" as="geometry" />
        </mxCell>
        <mxCell id="U5oiVVpsF7VziuaGztr8-5" value="&lt;font style=&quot;font-size: 20px;&quot;&gt;&lt;b&gt;CUSTOMER&lt;/b&gt;&lt;/font&gt;" style="text;html=1;strokeColor=#82b366;fillColor=#d5e8d4;align=center;verticalAlign=middle;whiteSpace=wrap;overflow=hidden;" vertex="1" parent="1">
          <mxGeometry x="-980" y="810" width="290" height="30" as="geometry" />
        </mxCell>
        <mxCell id="U5oiVVpsF7VziuaGztr8-6" value="&lt;font style=&quot;font-size: 20px;&quot;&gt;&lt;b&gt;SALES&lt;/b&gt;&lt;/font&gt;" style="text;html=1;strokeColor=#9673a6;fillColor=#e1d5e7;align=center;verticalAlign=middle;whiteSpace=wrap;overflow=hidden;" vertex="1" parent="1">
          <mxGeometry x="-1910" y="550" width="290" height="30" as="geometry" />
        </mxCell>
        <mxCell id="U5oiVVpsF7VziuaGztr8-7" style="edgeStyle=orthogonalEdgeStyle;rounded=0;orthogonalLoop=1;jettySize=auto;html=1;entryX=0;entryY=0.5;entryDx=0;entryDy=0;" edge="1" parent="1" source="SaeY1YJnAmAmEXPjq-Cy-16" target="SaeY1YJnAmAmEXPjq-Cy-23">
          <mxGeometry relative="1" as="geometry" />
        </mxCell>
      </root>
    </mxGraphModel>
  </diagram>
</mxfile>
